<?xml version="1.0" encoding="utf-8"?>
<!-- Generator: Adobe Illustrator 16.0.3, SVG Export Plug-In . SVG Version: 6.00 Build 0)  -->
<!DOCTYPE svg PUBLIC "-//W3C//DTD SVG 1.1//EN" "http://www.w3.org/Graphics/SVG/1.1/DTD/svg11.dtd">
<svg version="1.1" xmlns="http://www.w3.org/2000/svg" xmlns:xlink="http://www.w3.org/1999/xlink" x="0px" y="0px"
	 width="457.017px" height="223.799px" viewBox="0 0 457.017 223.799" enable-background="new 0 0 457.017 223.799"
	 xml:space="preserve">
<g id="Warstwa_1">
</g>
<g id="Warstwa_1_1_">
</g>
<g id="Warstwa_1_2_">
</g>
<g id="Warstwa_1_3_">
	<path fill-rule="evenodd" clip-rule="evenodd" fill="#EF7C00" d="M71.896,134.583l-21.352,20.852
		c-2.446,2.336-5.061,3.503-7.841,3.503c-3.113,0-5.811-1.167-8.09-3.503c-2.28-2.335-3.42-5.032-3.42-8.146
		c0-2.78,1.251-5.394,3.726-7.813l11.927-11.928c-1.445-0.194-2.891-0.306-4.337-0.306c-5.532,0-10.259,1.946-14.151,5.839
		c-3.893,3.892-5.839,8.618-5.839,14.179s1.946,10.314,5.839,14.263s8.619,5.922,14.18,5.922h14.846
		c3.336,0,6.033,1.028,8.091,3.086s3.086,4.755,3.086,8.091s-1.028,6.061-3.086,8.174c-2.058,2.112-4.755,3.169-8.091,3.169H42.538
		c-12.011,0-22.104-4.114-30.277-12.344S0,159.271,0,147.261s4.087-22.103,12.261-30.276s18.267-12.261,30.277-12.261
		c12.121,0,22.408,4.337,30.86,13.012c2.224,2.335,3.336,4.893,3.336,7.673C76.734,129.078,75.122,132.137,71.896,134.583z"/>
	<path fill-rule="evenodd" clip-rule="evenodd" fill="#EF7C00" d="M145.337,0c5.422,1.565,6.055,11.237,5.969,14.64
		c24.849,55.562,32.068-11.9,111.463-12.984c21.663,18.264,54.503,4.226,86.264,12.25c25.182,4.849,31.478,24.501,57.936,19.142
		c-66.449,55.362-97.061-17.969-123.016-5.87c-15.569,23.395-18.037,28.159-18.121,39.559c-12.408,3.917-20.803-1.504-22.204-0.766
		c-3.614-0.148-5.133,10.18-11.74,10.209c-3.194-0.796-5.749-1.753-6.891-3.063c1.266-3.253,3.669-6.528,14.036-9.954
		c3.936-1.667,9.576-2.765,16.079-3.573c-1.517-2.494-2.652-6.352-3.573-10.974c-0.287-2.62,0.489-3.917,2.33-3.894
		c12.225-1.081,17.791-8.096,16.047-21.628c-7.368,1.791-11.721,15.079-20.387,19.3c-19.521,0.986-32.304,19.007-35.507,20.259
		c-0.357,0.126-0.704,0.256-1.039,0.391c-1.998-1.308-3.989-4.201-6.311-9.387c0.041-1.598-0.251-6.123-2.794-6.853
		c0.406,8.654-5.646-0.584-9.656,0.297c0.992,2.03,1.51,4.083,1.417,6.35c-0.86,0.572-1.587,1.713-2.448,2.277
		c0.102,7.268-7.925,3.759-11.905,7.432l0.84,1.717l2.002,1.634c15.068,0.283,16.704,3.657,19.944,6.847
		c0.558,5.212,22.563,19.125,26.745,20.056l3.317-0.766c3.147,0.595,6.295,1.19,9.443,1.787c-0.166,1.681-0.853,3.084-2.297,4.083
		c-2.701,1.466-5.844,1.996-9.698,1.021c-23.963-2.819-49.673-27.479-72.943-35.355c-16.472-7.647-10.552-21.226-55.504-22.079
		l-4.279-3.491l-1.788-3.673c8.504-7.838,25.645-0.35,25.423-15.872c1.841-1.211,3.405-3.656,5.245-4.867
		c0.196-4.844-0.909-9.238-3.041-13.569C133.267-1.246,146.202,18.495,145.337,0z"/>
	<path fill-rule="evenodd" clip-rule="evenodd" fill="#FFFFFF" d="M104.567,111.867l13.651,35.309l13.65-35.309
		c1.892-4.893,5.282-7.34,10.176-7.34c3.142,0,5.866,1.057,8.202,3.169c2.335,2.113,3.503,4.727,3.503,7.84
		c0,1.445-0.278,2.892-0.834,4.337l-24.188,62.556c-2.335,6.005-5.838,9.008-10.509,9.008s-8.174-3.003-10.509-9.008l-24.188-62.556
		c-0.556-1.445-0.834-2.892-0.834-4.337c0-3.114,1.167-5.727,3.503-7.84c2.336-2.113,5.061-3.169,8.174-3.169
		C99.285,104.527,102.677,106.974,104.567,111.867L104.567,111.867z M202.626,104.694c12.011,0,22.131,4.087,30.36,12.261
		s12.345,18.267,12.345,30.276c0,12.011-4.115,22.131-12.345,30.36s-18.35,12.344-30.36,12.344c-12.01,0-22.103-4.114-30.276-12.344
		s-12.261-18.35-12.261-30.36c0-12.01,4.087-22.103,12.261-30.276S190.616,104.694,202.626,104.694L202.626,104.694z
		 M202.626,127.214c-5.56,0-10.286,1.946-14.179,5.839c-3.892,3.892-5.839,8.618-5.839,14.179s1.947,10.314,5.839,14.263
		c3.893,3.948,8.619,5.922,14.179,5.922c5.561,0,10.314-1.974,14.263-5.922s5.922-8.702,5.922-14.263s-1.974-10.287-5.922-14.179
		C212.94,129.16,208.187,127.214,202.626,127.214L202.626,127.214z M277.025,82.008v96.418c0,3.337-1.057,6.033-3.17,8.091
		c-2.112,2.057-4.837,3.086-8.174,3.086c-3.336,0-6.033-1.029-8.091-3.086c-2.057-2.058-3.086-4.754-3.086-8.091V82.008
		c0-3.336,1.029-6.033,3.086-8.091c2.058-2.057,4.755-3.086,8.091-3.086C273.244,70.831,277.025,74.557,277.025,82.008
		L277.025,82.008z M328.57,167.416c5.561,0,10.314-1.974,14.263-5.922s5.922-8.702,5.922-14.263s-1.974-10.287-5.922-14.179
		c-3.948-3.893-8.702-5.839-14.263-5.839c-5.56,0-10.286,1.946-14.179,5.839c-3.893,3.892-5.839,8.618-5.839,14.179v65.225
		c0,3.336-1.056,6.061-3.169,8.174c-2.113,2.112-4.838,3.169-8.174,3.169s-6.033-1.057-8.091-3.169
		c-2.058-2.113-3.086-4.838-3.086-8.174v-65.225c0-12.01,4.087-22.103,12.261-30.276s18.266-12.261,30.276-12.261
		s22.131,4.087,30.36,12.261s12.344,18.267,12.344,30.276c0,12.011-4.114,22.131-12.344,30.36s-18.35,12.344-30.36,12.344
		c-3.336,0-6.033-1.056-8.091-3.169c-2.057-2.113-3.086-4.838-3.086-8.174s1.029-6.033,3.086-8.091
		C322.537,168.444,325.234,167.416,328.57,167.416L328.57,167.416z M452.18,134.554l-21.353,20.852
		c-2.446,2.336-5.06,3.504-7.84,3.504c-3.114,0-5.811-1.168-8.091-3.504c-2.28-2.335-3.419-5.032-3.419-8.146
		c0-2.78,1.251-5.394,3.725-7.813l11.928-11.928c-1.446-0.194-2.892-0.306-4.338-0.306c-5.532,0-10.259,1.946-14.15,5.839
		c-3.893,3.892-5.839,8.618-5.839,14.179s1.946,10.314,5.839,14.263c3.892,3.948,8.618,5.922,14.179,5.922h14.847
		c3.336,0,6.033,1.028,8.09,3.086c2.058,2.058,3.086,4.755,3.086,8.091s-1.028,6.061-3.086,8.174
		c-2.057,2.113-4.754,3.169-8.09,3.169H422.82c-12.011,0-22.103-4.114-30.276-12.344s-12.262-18.35-12.262-30.36
		c0-12.01,4.088-22.103,12.262-30.276s18.266-12.261,30.276-12.261c12.122,0,22.408,4.337,30.86,13.012
		c2.225,2.335,3.336,4.893,3.336,7.673C457.017,129.049,455.404,132.107,452.18,134.554z"/>
</g>
<g id="Warstwa_1_4_">
</g>
<g id="Warstwa_1_5_">
</g>
<g id="Warstwa_1_6_">
</g>
<g id="Warstwa_1_7_">
</g>
</svg>
